<?xml version="1.0" encoding="UTF-8" standalone="no"?>
<!DOCTYPE svg PUBLIC "-//W3C//DTD SVG 1.1//EN" "http://www.w3.org/Graphics/SVG/1.1/DTD/svg11.dtd">
<svg width="100%" height="100%" viewBox="0 0 1300 201" version="1.1" xmlns="http://www.w3.org/2000/svg" xmlns:xlink="http://www.w3.org/1999/xlink" xml:space="preserve" xmlns:serif="http://www.serif.com/" style="fill-rule:evenodd;clip-rule:evenodd;stroke-linejoin:round;stroke-miterlimit:2;">
    <g transform="matrix(4.16667,0,0,4.16667,-1323.44,-1142.77)">
        <g id="レイヤー-1" serif:id="レイヤー 1">
            <g>
                <g>
                    <g transform="matrix(43.2163,0,0,43.2163,323.066,314.712)">
                        <path d="M0.768,-0.377C0.768,-0.473 0.735,-0.554 0.669,-0.62C0.602,-0.686 0.521,-0.719 0.426,-0.719C0.331,-0.719 0.25,-0.686 0.185,-0.62C0.119,-0.554 0.086,-0.473 0.086,-0.377C0.086,-0.281 0.119,-0.2 0.184,-0.134C0.25,-0.068 0.33,-0.035 0.426,-0.035C0.521,-0.035 0.602,-0.068 0.669,-0.134C0.735,-0.2 0.768,-0.281 0.768,-0.377ZM0.816,-0.377C0.816,-0.269 0.778,-0.178 0.702,-0.103C0.626,-0.028 0.534,0.01 0.426,0.01C0.318,0.01 0.227,-0.028 0.151,-0.103C0.076,-0.178 0.038,-0.269 0.038,-0.377C0.038,-0.487 0.075,-0.579 0.149,-0.653C0.224,-0.727 0.316,-0.764 0.426,-0.764C0.536,-0.764 0.629,-0.727 0.704,-0.653C0.778,-0.579 0.816,-0.487 0.816,-0.377Z" style="fill-rule:nonzero;"/>
                        <path d="M0.839,-0.377C0.839,-0.263 0.799,-0.166 0.718,-0.086C0.638,-0.007 0.541,0.033 0.426,0.033C0.312,0.033 0.215,-0.007 0.135,-0.086C0.055,-0.166 0.015,-0.263 0.015,-0.377C0.015,-0.494 0.054,-0.591 0.133,-0.669C0.212,-0.748 0.309,-0.787 0.426,-0.787C0.543,-0.787 0.641,-0.748 0.72,-0.67C0.799,-0.591 0.839,-0.494 0.839,-0.377ZM0.816,-0.377C0.816,-0.487 0.778,-0.579 0.704,-0.653C0.629,-0.727 0.536,-0.764 0.426,-0.764C0.316,-0.764 0.224,-0.727 0.149,-0.653C0.075,-0.579 0.038,-0.487 0.038,-0.377C0.038,-0.269 0.076,-0.178 0.151,-0.103C0.227,-0.028 0.318,0.01 0.426,0.01C0.534,0.01 0.626,-0.028 0.702,-0.103C0.778,-0.178 0.816,-0.269 0.816,-0.377ZM0.768,-0.377C0.768,-0.281 0.735,-0.2 0.669,-0.134C0.602,-0.068 0.521,-0.035 0.426,-0.035C0.33,-0.035 0.25,-0.068 0.184,-0.134C0.119,-0.2 0.086,-0.281 0.086,-0.377C0.086,-0.473 0.119,-0.554 0.185,-0.62C0.25,-0.686 0.331,-0.719 0.426,-0.719C0.521,-0.719 0.602,-0.686 0.669,-0.62C0.735,-0.554 0.768,-0.473 0.768,-0.377ZM0.745,-0.377C0.745,-0.466 0.714,-0.542 0.652,-0.604C0.591,-0.665 0.515,-0.696 0.426,-0.696C0.337,-0.696 0.262,-0.665 0.201,-0.604C0.14,-0.542 0.109,-0.467 0.109,-0.377C0.109,-0.287 0.14,-0.212 0.201,-0.15C0.262,-0.089 0.337,-0.058 0.426,-0.058C0.515,-0.058 0.591,-0.089 0.652,-0.151C0.714,-0.212 0.745,-0.288 0.745,-0.377Z" style="fill:white;"/>
                    </g>
                    <g transform="matrix(43.2163,0,0,43.2163,371.153,314.712)">
                        <path d="M0.679,-0.057C0.645,-0.036 0.607,-0.02 0.565,-0.008C0.524,0.004 0.483,0.01 0.444,0.01C0.33,0.01 0.236,-0.026 0.164,-0.098C0.091,-0.17 0.054,-0.264 0.054,-0.378C0.054,-0.49 0.091,-0.582 0.165,-0.655C0.239,-0.728 0.332,-0.764 0.444,-0.764C0.49,-0.764 0.532,-0.758 0.571,-0.746C0.61,-0.733 0.646,-0.715 0.679,-0.69L0.679,-0.635C0.642,-0.664 0.606,-0.685 0.569,-0.699C0.532,-0.712 0.493,-0.719 0.451,-0.719C0.349,-0.719 0.265,-0.688 0.2,-0.624C0.135,-0.561 0.102,-0.479 0.102,-0.378C0.102,-0.277 0.134,-0.195 0.198,-0.131C0.262,-0.067 0.343,-0.035 0.441,-0.035C0.483,-0.035 0.524,-0.042 0.565,-0.055C0.606,-0.069 0.644,-0.088 0.679,-0.113L0.679,-0.057Z" style="fill-rule:nonzero;"/>
                        <path d="M0.691,-0.037C0.655,-0.015 0.616,0.002 0.572,0.014C0.528,0.027 0.485,0.033 0.444,0.033C0.323,0.033 0.224,-0.006 0.147,-0.082C0.07,-0.158 0.031,-0.257 0.031,-0.378C0.031,-0.496 0.07,-0.594 0.149,-0.671C0.227,-0.748 0.325,-0.787 0.444,-0.787C0.492,-0.787 0.537,-0.781 0.578,-0.768C0.619,-0.755 0.658,-0.735 0.693,-0.708C0.699,-0.704 0.702,-0.697 0.702,-0.69L0.702,-0.635C0.702,-0.626 0.697,-0.618 0.689,-0.614C0.681,-0.61 0.672,-0.611 0.665,-0.617C0.63,-0.644 0.596,-0.664 0.561,-0.677C0.527,-0.69 0.49,-0.696 0.451,-0.696C0.355,-0.696 0.277,-0.667 0.216,-0.607C0.155,-0.548 0.125,-0.472 0.125,-0.378C0.125,-0.284 0.155,-0.207 0.214,-0.147C0.274,-0.088 0.35,-0.058 0.441,-0.058C0.48,-0.058 0.519,-0.065 0.558,-0.077C0.596,-0.09 0.632,-0.108 0.666,-0.132C0.673,-0.137 0.682,-0.137 0.69,-0.133C0.698,-0.129 0.702,-0.121 0.702,-0.113L0.702,-0.057C0.702,-0.049 0.698,-0.042 0.691,-0.037ZM0.679,-0.057L0.679,-0.113C0.644,-0.088 0.606,-0.069 0.565,-0.055C0.524,-0.042 0.483,-0.035 0.441,-0.035C0.343,-0.035 0.262,-0.067 0.198,-0.131C0.134,-0.195 0.102,-0.277 0.102,-0.378C0.102,-0.479 0.135,-0.561 0.2,-0.624C0.265,-0.688 0.349,-0.719 0.451,-0.719C0.493,-0.719 0.532,-0.712 0.569,-0.699C0.606,-0.685 0.642,-0.664 0.679,-0.635L0.679,-0.69C0.646,-0.715 0.61,-0.733 0.571,-0.746C0.532,-0.758 0.49,-0.764 0.444,-0.764C0.332,-0.764 0.239,-0.728 0.165,-0.655C0.091,-0.582 0.054,-0.49 0.054,-0.378C0.054,-0.264 0.091,-0.17 0.164,-0.098C0.236,-0.026 0.33,0.01 0.444,0.01C0.483,0.01 0.524,0.004 0.565,-0.008C0.607,-0.02 0.645,-0.036 0.679,-0.057Z" style="fill:white;"/>
                    </g>
                    <g transform="matrix(43.2163,0,0,43.2163,414.809,314.712)">
                        <path d="M0.43,-0.709L0.249,-0.709L0.249,-0L0.201,-0L0.201,-0.709L0.02,-0.709L0.02,-0.754L0.43,-0.754L0.43,-0.709Z" style="fill-rule:nonzero;"/>
                        <path d="M0.43,-0.686L0.272,-0.686L0.272,-0C0.272,0.013 0.262,0.023 0.249,0.023L0.201,0.023C0.188,0.023 0.178,0.013 0.178,0L0.178,-0.686L0.02,-0.686C0.007,-0.686 -0.003,-0.696 -0.003,-0.709L-0.003,-0.754C-0.003,-0.767 0.007,-0.777 0.02,-0.777L0.43,-0.777C0.443,-0.777 0.453,-0.767 0.453,-0.754L0.453,-0.709C0.453,-0.696 0.443,-0.686 0.43,-0.686ZM0.43,-0.709L0.43,-0.754L0.02,-0.754L0.02,-0.709L0.201,-0.709L0.201,0L0.249,0L0.249,-0.709L0.43,-0.709Z" style="fill:white;"/>
                    </g>
                    <g transform="matrix(43.2163,0,0,43.2163,446.922,314.712)">
                        <path d="M0.768,-0.377C0.768,-0.473 0.735,-0.554 0.669,-0.62C0.602,-0.686 0.521,-0.719 0.426,-0.719C0.331,-0.719 0.25,-0.686 0.185,-0.62C0.119,-0.554 0.086,-0.473 0.086,-0.377C0.086,-0.281 0.119,-0.2 0.184,-0.134C0.25,-0.068 0.33,-0.035 0.426,-0.035C0.521,-0.035 0.602,-0.068 0.669,-0.134C0.735,-0.2 0.768,-0.281 0.768,-0.377ZM0.816,-0.377C0.816,-0.269 0.778,-0.178 0.702,-0.103C0.626,-0.028 0.534,0.01 0.426,0.01C0.318,0.01 0.227,-0.028 0.151,-0.103C0.076,-0.178 0.038,-0.269 0.038,-0.377C0.038,-0.487 0.075,-0.579 0.149,-0.653C0.224,-0.727 0.316,-0.764 0.426,-0.764C0.536,-0.764 0.629,-0.727 0.704,-0.653C0.778,-0.579 0.816,-0.487 0.816,-0.377Z" style="fill-rule:nonzero;"/>
                        <path d="M0.839,-0.377C0.839,-0.263 0.799,-0.166 0.718,-0.086C0.638,-0.007 0.541,0.033 0.426,0.033C0.312,0.033 0.215,-0.007 0.135,-0.086C0.055,-0.166 0.015,-0.263 0.015,-0.377C0.015,-0.494 0.054,-0.591 0.133,-0.669C0.212,-0.748 0.309,-0.787 0.426,-0.787C0.543,-0.787 0.641,-0.748 0.72,-0.67C0.799,-0.591 0.839,-0.494 0.839,-0.377ZM0.816,-0.377C0.816,-0.487 0.778,-0.579 0.704,-0.653C0.629,-0.727 0.536,-0.764 0.426,-0.764C0.316,-0.764 0.224,-0.727 0.149,-0.653C0.075,-0.579 0.038,-0.487 0.038,-0.377C0.038,-0.269 0.076,-0.178 0.151,-0.103C0.227,-0.028 0.318,0.01 0.426,0.01C0.534,0.01 0.626,-0.028 0.702,-0.103C0.778,-0.178 0.816,-0.269 0.816,-0.377ZM0.768,-0.377C0.768,-0.281 0.735,-0.2 0.669,-0.134C0.602,-0.068 0.521,-0.035 0.426,-0.035C0.33,-0.035 0.25,-0.068 0.184,-0.134C0.119,-0.2 0.086,-0.281 0.086,-0.377C0.086,-0.473 0.119,-0.554 0.185,-0.62C0.25,-0.686 0.331,-0.719 0.426,-0.719C0.521,-0.719 0.602,-0.686 0.669,-0.62C0.735,-0.554 0.768,-0.473 0.768,-0.377ZM0.745,-0.377C0.745,-0.466 0.714,-0.542 0.652,-0.604C0.591,-0.665 0.515,-0.696 0.426,-0.696C0.337,-0.696 0.262,-0.665 0.201,-0.604C0.14,-0.542 0.109,-0.467 0.109,-0.377C0.109,-0.287 0.14,-0.212 0.201,-0.15C0.262,-0.089 0.337,-0.058 0.426,-0.058C0.515,-0.058 0.591,-0.089 0.652,-0.151C0.714,-0.212 0.745,-0.288 0.745,-0.377Z" style="fill:white;"/>
                    </g>
                    <g transform="matrix(43.2163,0,0,43.2163,493.68,314.712)">
                        <path d="M0.384,-0.553C0.384,-0.607 0.367,-0.647 0.334,-0.672C0.302,-0.697 0.247,-0.709 0.172,-0.709L0.133,-0.709L0.133,-0.401L0.172,-0.401C0.248,-0.401 0.303,-0.413 0.335,-0.437C0.368,-0.46 0.384,-0.499 0.384,-0.553ZM0.432,-0.553C0.432,-0.486 0.411,-0.436 0.369,-0.404C0.327,-0.372 0.261,-0.356 0.172,-0.356L0.133,-0.356L0.133,-0L0.085,-0L0.085,-0.754L0.172,-0.754C0.263,-0.754 0.329,-0.738 0.37,-0.705C0.411,-0.672 0.432,-0.622 0.432,-0.553Z" style="fill-rule:nonzero;"/>
                        <path d="M0.455,-0.553C0.455,-0.477 0.43,-0.422 0.383,-0.386C0.338,-0.351 0.268,-0.333 0.172,-0.333L0.156,-0.333L0.156,0C0.156,0.013 0.146,0.023 0.133,0.023L0.085,0.023C0.072,0.023 0.062,0.013 0.062,0L0.062,-0.754C0.062,-0.767 0.072,-0.777 0.085,-0.777L0.172,-0.777C0.269,-0.777 0.34,-0.758 0.384,-0.723C0.431,-0.686 0.455,-0.63 0.455,-0.553ZM0.432,-0.553C0.432,-0.622 0.411,-0.672 0.37,-0.705C0.329,-0.738 0.263,-0.754 0.172,-0.754L0.085,-0.754L0.085,0L0.133,0L0.133,-0.356L0.172,-0.356C0.261,-0.356 0.327,-0.372 0.369,-0.404C0.411,-0.436 0.432,-0.486 0.432,-0.553ZM0.384,-0.553C0.384,-0.499 0.368,-0.46 0.335,-0.437C0.303,-0.413 0.248,-0.401 0.172,-0.401L0.133,-0.401L0.133,-0.709L0.172,-0.709C0.247,-0.709 0.302,-0.697 0.334,-0.672C0.367,-0.647 0.384,-0.607 0.384,-0.553ZM0.361,-0.553C0.361,-0.599 0.348,-0.632 0.321,-0.653C0.291,-0.676 0.241,-0.686 0.172,-0.686L0.156,-0.686C0.156,-0.686 0.156,-0.424 0.156,-0.424L0.172,-0.424C0.242,-0.424 0.292,-0.433 0.322,-0.455C0.349,-0.475 0.361,-0.508 0.361,-0.553Z" style="fill:white;"/>
                    </g>
                    <g transform="matrix(43.2163,0,0,43.2163,527.144,314.712)">
                        <path d="M0.46,-0.307L0.321,-0.659L0.182,-0.307L0.46,-0.307ZM0.633,-0L0.582,-0L0.478,-0.262L0.164,-0.262L0.06,-0L0.009,-0L0.321,-0.772L0.633,-0Z" style="fill-rule:nonzero;"/>
                        <path d="M0.633,0.023L0.582,0.023C0.573,0.023 0.564,0.017 0.561,0.009L0.462,-0.239L0.18,-0.239L0.082,0.009C0.078,0.017 0.07,0.023 0.06,0.023L0.009,0.023C0.001,0.023 -0.006,0.019 -0.01,0.013C-0.015,0.007 -0.016,-0.002 -0.013,-0.009L0.299,-0.781C0.303,-0.789 0.311,-0.795 0.321,-0.795C0.33,-0.795 0.339,-0.789 0.342,-0.781L0.654,-0.009C0.657,-0.002 0.656,0.007 0.652,0.013C0.648,0.019 0.641,0.023 0.633,0.023ZM0.633,0L0.321,-0.772L0.009,0L0.06,0L0.164,-0.262L0.478,-0.262L0.582,0L0.633,0ZM0.46,-0.307L0.182,-0.307L0.321,-0.659L0.46,-0.307ZM0.426,-0.33L0.321,-0.596L0.216,-0.33L0.426,-0.33Z" style="fill:white;"/>
                    </g>
                    <g transform="matrix(43.2163,0,0,43.2163,567.592,314.712)">
                        <path d="M0.476,-0.201C0.476,-0.137 0.455,-0.086 0.414,-0.048C0.373,-0.009 0.318,0.01 0.25,0.01C0.202,0.01 0.161,-0.002 0.125,-0.026C0.09,-0.05 0.064,-0.084 0.048,-0.127L0.089,-0.148C0.102,-0.112 0.123,-0.085 0.152,-0.065C0.181,-0.045 0.215,-0.035 0.254,-0.035C0.308,-0.035 0.351,-0.05 0.382,-0.079C0.413,-0.109 0.428,-0.149 0.428,-0.201C0.428,-0.24 0.416,-0.273 0.391,-0.302C0.366,-0.33 0.324,-0.358 0.267,-0.385C0.196,-0.418 0.147,-0.449 0.12,-0.478C0.093,-0.507 0.079,-0.546 0.079,-0.594C0.079,-0.645 0.097,-0.686 0.132,-0.717C0.167,-0.748 0.212,-0.764 0.269,-0.764C0.304,-0.764 0.334,-0.757 0.36,-0.743C0.386,-0.73 0.408,-0.709 0.425,-0.681L0.387,-0.654C0.374,-0.675 0.357,-0.691 0.336,-0.702C0.315,-0.714 0.291,-0.719 0.264,-0.719C0.222,-0.719 0.188,-0.708 0.164,-0.686C0.139,-0.663 0.127,-0.632 0.127,-0.593C0.127,-0.562 0.135,-0.536 0.151,-0.515C0.167,-0.495 0.195,-0.474 0.236,-0.452C0.247,-0.446 0.263,-0.438 0.285,-0.427C0.412,-0.364 0.476,-0.289 0.476,-0.201Z" style="fill-rule:nonzero;"/>
                        <path d="M0.499,-0.201C0.499,-0.13 0.476,-0.073 0.43,-0.031C0.384,0.011 0.325,0.033 0.25,0.033C0.198,0.033 0.152,0.019 0.113,-0.007C0.073,-0.034 0.044,-0.071 0.026,-0.119C0.022,-0.13 0.027,-0.142 0.037,-0.148L0.078,-0.169C0.084,-0.172 0.091,-0.172 0.097,-0.169C0.103,-0.167 0.108,-0.162 0.111,-0.156C0.122,-0.125 0.14,-0.101 0.165,-0.084C0.191,-0.067 0.22,-0.058 0.254,-0.058C0.301,-0.058 0.339,-0.07 0.366,-0.096C0.392,-0.121 0.405,-0.157 0.405,-0.201C0.405,-0.234 0.395,-0.262 0.373,-0.286C0.35,-0.313 0.311,-0.338 0.257,-0.364C0.182,-0.399 0.131,-0.432 0.103,-0.462C0.072,-0.495 0.056,-0.539 0.056,-0.594C0.056,-0.652 0.076,-0.698 0.116,-0.734C0.155,-0.769 0.206,-0.787 0.269,-0.787C0.308,-0.787 0.342,-0.779 0.371,-0.764C0.4,-0.748 0.425,-0.725 0.444,-0.693C0.451,-0.683 0.448,-0.67 0.438,-0.662L0.401,-0.635C0.396,-0.631 0.389,-0.63 0.383,-0.631C0.376,-0.632 0.371,-0.636 0.368,-0.642C0.357,-0.659 0.343,-0.673 0.325,-0.682C0.307,-0.691 0.287,-0.696 0.264,-0.696C0.228,-0.696 0.2,-0.687 0.179,-0.669C0.159,-0.65 0.15,-0.625 0.15,-0.593C0.15,-0.567 0.156,-0.546 0.169,-0.53C0.184,-0.511 0.21,-0.492 0.247,-0.473C0.247,-0.473 0.247,-0.472 0.247,-0.472C0.257,-0.467 0.273,-0.459 0.295,-0.448C0.433,-0.38 0.499,-0.296 0.499,-0.201ZM0.476,-0.201C0.476,-0.289 0.412,-0.364 0.285,-0.427C0.263,-0.438 0.247,-0.446 0.236,-0.452C0.195,-0.474 0.167,-0.495 0.151,-0.515C0.135,-0.536 0.127,-0.562 0.127,-0.593C0.127,-0.632 0.139,-0.663 0.164,-0.686C0.188,-0.708 0.222,-0.719 0.264,-0.719C0.291,-0.719 0.315,-0.714 0.336,-0.702C0.357,-0.691 0.374,-0.675 0.387,-0.654L0.425,-0.681C0.408,-0.709 0.386,-0.73 0.36,-0.743C0.334,-0.757 0.304,-0.764 0.269,-0.764C0.212,-0.764 0.167,-0.748 0.132,-0.717C0.097,-0.686 0.079,-0.645 0.079,-0.594C0.079,-0.546 0.093,-0.507 0.12,-0.478C0.147,-0.449 0.196,-0.418 0.267,-0.385C0.324,-0.358 0.366,-0.33 0.391,-0.302C0.416,-0.273 0.428,-0.24 0.428,-0.201C0.428,-0.149 0.413,-0.109 0.382,-0.079C0.351,-0.05 0.308,-0.035 0.254,-0.035C0.215,-0.035 0.181,-0.045 0.152,-0.065C0.123,-0.085 0.102,-0.112 0.089,-0.148L0.048,-0.127C0.064,-0.084 0.09,-0.05 0.125,-0.026C0.161,-0.002 0.202,0.01 0.25,0.01C0.318,0.01 0.373,-0.009 0.414,-0.048C0.455,-0.086 0.476,-0.137 0.476,-0.201Z" style="fill:white;"/>
                    </g>
                    <g transform="matrix(43.2163,0,0,43.2163,601.267,314.712)">
                        <path d="M0.476,-0.201C0.476,-0.137 0.455,-0.086 0.414,-0.048C0.373,-0.009 0.318,0.01 0.25,0.01C0.202,0.01 0.161,-0.002 0.125,-0.026C0.09,-0.05 0.064,-0.084 0.048,-0.127L0.089,-0.148C0.102,-0.112 0.123,-0.085 0.152,-0.065C0.181,-0.045 0.215,-0.035 0.254,-0.035C0.308,-0.035 0.351,-0.05 0.382,-0.079C0.413,-0.109 0.428,-0.149 0.428,-0.201C0.428,-0.24 0.416,-0.273 0.391,-0.302C0.366,-0.33 0.324,-0.358 0.267,-0.385C0.196,-0.418 0.147,-0.449 0.12,-0.478C0.093,-0.507 0.079,-0.546 0.079,-0.594C0.079,-0.645 0.097,-0.686 0.132,-0.717C0.167,-0.748 0.212,-0.764 0.269,-0.764C0.304,-0.764 0.334,-0.757 0.36,-0.743C0.386,-0.73 0.408,-0.709 0.425,-0.681L0.387,-0.654C0.374,-0.675 0.357,-0.691 0.336,-0.702C0.315,-0.714 0.291,-0.719 0.264,-0.719C0.222,-0.719 0.188,-0.708 0.164,-0.686C0.139,-0.663 0.127,-0.632 0.127,-0.593C0.127,-0.562 0.135,-0.536 0.151,-0.515C0.167,-0.495 0.195,-0.474 0.236,-0.452C0.247,-0.446 0.263,-0.438 0.285,-0.427C0.412,-0.364 0.476,-0.289 0.476,-0.201Z" style="fill-rule:nonzero;"/>
                        <path d="M0.499,-0.201C0.499,-0.13 0.476,-0.073 0.43,-0.031C0.384,0.011 0.325,0.033 0.25,0.033C0.198,0.033 0.152,0.019 0.113,-0.007C0.073,-0.034 0.044,-0.071 0.026,-0.119C0.022,-0.13 0.027,-0.142 0.037,-0.148L0.078,-0.169C0.084,-0.172 0.091,-0.172 0.097,-0.169C0.103,-0.167 0.108,-0.162 0.111,-0.156C0.122,-0.125 0.14,-0.101 0.165,-0.084C0.191,-0.067 0.22,-0.058 0.254,-0.058C0.301,-0.058 0.339,-0.07 0.366,-0.096C0.392,-0.121 0.405,-0.157 0.405,-0.201C0.405,-0.234 0.395,-0.262 0.373,-0.286C0.35,-0.313 0.311,-0.338 0.257,-0.364C0.182,-0.399 0.131,-0.432 0.103,-0.462C0.072,-0.495 0.056,-0.539 0.056,-0.594C0.056,-0.652 0.076,-0.698 0.116,-0.734C0.155,-0.769 0.206,-0.787 0.269,-0.787C0.308,-0.787 0.342,-0.779 0.371,-0.764C0.4,-0.748 0.425,-0.725 0.444,-0.693C0.451,-0.683 0.448,-0.67 0.438,-0.662L0.401,-0.635C0.396,-0.631 0.389,-0.63 0.383,-0.631C0.376,-0.632 0.371,-0.636 0.368,-0.642C0.357,-0.659 0.343,-0.673 0.325,-0.682C0.307,-0.691 0.287,-0.696 0.264,-0.696C0.228,-0.696 0.2,-0.687 0.179,-0.669C0.159,-0.65 0.15,-0.625 0.15,-0.593C0.15,-0.567 0.156,-0.546 0.169,-0.53C0.184,-0.511 0.21,-0.492 0.247,-0.473C0.247,-0.473 0.247,-0.472 0.247,-0.472C0.257,-0.467 0.273,-0.459 0.295,-0.448C0.433,-0.38 0.499,-0.296 0.499,-0.201ZM0.476,-0.201C0.476,-0.289 0.412,-0.364 0.285,-0.427C0.263,-0.438 0.247,-0.446 0.236,-0.452C0.195,-0.474 0.167,-0.495 0.151,-0.515C0.135,-0.536 0.127,-0.562 0.127,-0.593C0.127,-0.632 0.139,-0.663 0.164,-0.686C0.188,-0.708 0.222,-0.719 0.264,-0.719C0.291,-0.719 0.315,-0.714 0.336,-0.702C0.357,-0.691 0.374,-0.675 0.387,-0.654L0.425,-0.681C0.408,-0.709 0.386,-0.73 0.36,-0.743C0.334,-0.757 0.304,-0.764 0.269,-0.764C0.212,-0.764 0.167,-0.748 0.132,-0.717C0.097,-0.686 0.079,-0.645 0.079,-0.594C0.079,-0.546 0.093,-0.507 0.12,-0.478C0.147,-0.449 0.196,-0.418 0.267,-0.385C0.324,-0.358 0.366,-0.33 0.391,-0.302C0.416,-0.273 0.428,-0.24 0.428,-0.201C0.428,-0.149 0.413,-0.109 0.382,-0.079C0.351,-0.05 0.308,-0.035 0.254,-0.035C0.215,-0.035 0.181,-0.045 0.152,-0.065C0.123,-0.085 0.102,-0.112 0.089,-0.148L0.048,-0.127C0.064,-0.084 0.09,-0.05 0.125,-0.026C0.161,-0.002 0.202,0.01 0.25,0.01C0.318,0.01 0.373,-0.009 0.414,-0.048C0.455,-0.086 0.476,-0.137 0.476,-0.201Z" style="fill:white;"/>
                    </g>
                </g>
            </g>
        </g>
    </g>
</svg>
