<?xml version="1.0" encoding="UTF-8" standalone="no"?>
<!DOCTYPE svg PUBLIC "-//W3C//DTD SVG 1.1//EN" "http://www.w3.org/Graphics/SVG/1.1/DTD/svg11.dtd">
<svg width="100%" height="100%" viewBox="0 0 1792 364" version="1.1" xmlns="http://www.w3.org/2000/svg" xmlns:xlink="http://www.w3.org/1999/xlink" xml:space="preserve" xmlns:serif="http://www.serif.com/" style="fill-rule:evenodd;clip-rule:evenodd;stroke-linejoin:round;stroke-miterlimit:2;">
    <style>
        #octopass { fill: black; }
        @media (prefers-color-scheme: dark) {
            #octopass { fill: white; }
        }
    </style>
    <g id="octopass" serif:id="octopass-layer" transform="matrix(4.16667,0,0,4.16667,-0.000654385,-0.00932654)">
        <g transform="matrix(1,0,0,1,-205.876,-253.98)">
            <g>
                <g transform="matrix(43.2163,0,0,43.2163,323.066,314.712)">
                    <path d="M0.768,-0.377C0.768,-0.473 0.735,-0.554 0.669,-0.62C0.602,-0.686 0.521,-0.719 0.426,-0.719C0.331,-0.719 0.25,-0.686 0.185,-0.62C0.119,-0.554 0.086,-0.473 0.086,-0.377C0.086,-0.281 0.119,-0.2 0.184,-0.134C0.25,-0.068 0.33,-0.035 0.426,-0.035C0.521,-0.035 0.602,-0.068 0.669,-0.134C0.735,-0.2 0.768,-0.281 0.768,-0.377ZM0.816,-0.377C0.816,-0.269 0.778,-0.178 0.702,-0.103C0.626,-0.028 0.534,0.01 0.426,0.01C0.318,0.01 0.227,-0.028 0.151,-0.103C0.076,-0.178 0.038,-0.269 0.038,-0.377C0.038,-0.487 0.075,-0.579 0.149,-0.653C0.224,-0.727 0.316,-0.764 0.426,-0.764C0.536,-0.764 0.629,-0.727 0.704,-0.653C0.778,-0.579 0.816,-0.487 0.816,-0.377Z" style="fill-rule:nonzero;"/>
                </g>
                <g transform="matrix(43.2163,0,0,43.2163,371.153,314.712)">
                    <path d="M0.679,-0.057C0.645,-0.036 0.607,-0.02 0.565,-0.008C0.524,0.004 0.483,0.01 0.444,0.01C0.33,0.01 0.236,-0.026 0.164,-0.098C0.091,-0.17 0.054,-0.264 0.054,-0.378C0.054,-0.49 0.091,-0.582 0.165,-0.655C0.239,-0.728 0.332,-0.764 0.444,-0.764C0.49,-0.764 0.532,-0.758 0.571,-0.746C0.61,-0.733 0.646,-0.715 0.679,-0.69L0.679,-0.635C0.642,-0.664 0.606,-0.685 0.569,-0.699C0.532,-0.712 0.493,-0.719 0.451,-0.719C0.349,-0.719 0.265,-0.688 0.2,-0.624C0.135,-0.561 0.102,-0.479 0.102,-0.378C0.102,-0.277 0.134,-0.195 0.198,-0.131C0.262,-0.067 0.343,-0.035 0.441,-0.035C0.483,-0.035 0.524,-0.042 0.565,-0.055C0.606,-0.069 0.644,-0.088 0.679,-0.113L0.679,-0.057Z" style="fill-rule:nonzero;"/>
                </g>
                <g transform="matrix(43.2163,0,0,43.2163,414.809,314.712)">
                    <path d="M0.43,-0.709L0.249,-0.709L0.249,-0L0.201,-0L0.201,-0.709L0.02,-0.709L0.02,-0.754L0.43,-0.754L0.43,-0.709Z" style="fill-rule:nonzero;"/>
                </g>
                <g transform="matrix(43.2163,0,0,43.2163,446.922,314.712)">
                    <path d="M0.768,-0.377C0.768,-0.473 0.735,-0.554 0.669,-0.62C0.602,-0.686 0.521,-0.719 0.426,-0.719C0.331,-0.719 0.25,-0.686 0.185,-0.62C0.119,-0.554 0.086,-0.473 0.086,-0.377C0.086,-0.281 0.119,-0.2 0.184,-0.134C0.25,-0.068 0.33,-0.035 0.426,-0.035C0.521,-0.035 0.602,-0.068 0.669,-0.134C0.735,-0.2 0.768,-0.281 0.768,-0.377ZM0.816,-0.377C0.816,-0.269 0.778,-0.178 0.702,-0.103C0.626,-0.028 0.534,0.01 0.426,0.01C0.318,0.01 0.227,-0.028 0.151,-0.103C0.076,-0.178 0.038,-0.269 0.038,-0.377C0.038,-0.487 0.075,-0.579 0.149,-0.653C0.224,-0.727 0.316,-0.764 0.426,-0.764C0.536,-0.764 0.629,-0.727 0.704,-0.653C0.778,-0.579 0.816,-0.487 0.816,-0.377Z" style="fill-rule:nonzero;"/>
                </g>
                <g transform="matrix(43.2163,0,0,43.2163,493.68,314.712)">
                    <path d="M0.384,-0.553C0.384,-0.607 0.367,-0.647 0.334,-0.672C0.302,-0.697 0.247,-0.709 0.172,-0.709L0.133,-0.709L0.133,-0.401L0.172,-0.401C0.248,-0.401 0.303,-0.413 0.335,-0.437C0.368,-0.46 0.384,-0.499 0.384,-0.553ZM0.432,-0.553C0.432,-0.486 0.411,-0.436 0.369,-0.404C0.327,-0.372 0.261,-0.356 0.172,-0.356L0.133,-0.356L0.133,-0L0.085,-0L0.085,-0.754L0.172,-0.754C0.263,-0.754 0.329,-0.738 0.37,-0.705C0.411,-0.672 0.432,-0.622 0.432,-0.553Z" style="fill-rule:nonzero;"/>
                </g>
                <g transform="matrix(43.2163,0,0,43.2163,527.144,314.712)">
                    <path d="M0.46,-0.307L0.321,-0.659L0.182,-0.307L0.46,-0.307ZM0.633,-0L0.582,-0L0.478,-0.262L0.164,-0.262L0.06,-0L0.009,-0L0.321,-0.772L0.633,-0Z" style="fill-rule:nonzero;"/>
                </g>
                <g transform="matrix(43.2163,0,0,43.2163,567.592,314.712)">
                    <path d="M0.476,-0.201C0.476,-0.137 0.455,-0.086 0.414,-0.048C0.373,-0.009 0.318,0.01 0.25,0.01C0.202,0.01 0.161,-0.002 0.125,-0.026C0.09,-0.05 0.064,-0.084 0.048,-0.127L0.089,-0.148C0.102,-0.112 0.123,-0.085 0.152,-0.065C0.181,-0.045 0.215,-0.035 0.254,-0.035C0.308,-0.035 0.351,-0.05 0.382,-0.079C0.413,-0.109 0.428,-0.149 0.428,-0.201C0.428,-0.24 0.416,-0.273 0.391,-0.302C0.366,-0.33 0.324,-0.358 0.267,-0.385C0.196,-0.418 0.147,-0.449 0.12,-0.478C0.093,-0.507 0.079,-0.546 0.079,-0.594C0.079,-0.645 0.097,-0.686 0.132,-0.717C0.167,-0.748 0.212,-0.764 0.269,-0.764C0.304,-0.764 0.334,-0.757 0.36,-0.743C0.386,-0.73 0.408,-0.709 0.425,-0.681L0.387,-0.654C0.374,-0.675 0.357,-0.691 0.336,-0.702C0.315,-0.714 0.291,-0.719 0.264,-0.719C0.222,-0.719 0.188,-0.708 0.164,-0.686C0.139,-0.663 0.127,-0.632 0.127,-0.593C0.127,-0.562 0.135,-0.536 0.151,-0.515C0.167,-0.495 0.195,-0.474 0.236,-0.452C0.247,-0.446 0.263,-0.438 0.285,-0.427C0.412,-0.364 0.476,-0.289 0.476,-0.201Z" style="fill-rule:nonzero;"/>
                </g>
                <g transform="matrix(43.2163,0,0,43.2163,601.267,314.712)">
                    <path d="M0.476,-0.201C0.476,-0.137 0.455,-0.086 0.414,-0.048C0.373,-0.009 0.318,0.01 0.25,0.01C0.202,0.01 0.161,-0.002 0.125,-0.026C0.09,-0.05 0.064,-0.084 0.048,-0.127L0.089,-0.148C0.102,-0.112 0.123,-0.085 0.152,-0.065C0.181,-0.045 0.215,-0.035 0.254,-0.035C0.308,-0.035 0.351,-0.05 0.382,-0.079C0.413,-0.109 0.428,-0.149 0.428,-0.201C0.428,-0.24 0.416,-0.273 0.391,-0.302C0.366,-0.33 0.324,-0.358 0.267,-0.385C0.196,-0.418 0.147,-0.449 0.12,-0.478C0.093,-0.507 0.079,-0.546 0.079,-0.594C0.079,-0.645 0.097,-0.686 0.132,-0.717C0.167,-0.748 0.212,-0.764 0.269,-0.764C0.304,-0.764 0.334,-0.757 0.36,-0.743C0.386,-0.73 0.408,-0.709 0.425,-0.681L0.387,-0.654C0.374,-0.675 0.357,-0.691 0.336,-0.702C0.315,-0.714 0.291,-0.719 0.264,-0.719C0.222,-0.719 0.188,-0.708 0.164,-0.686C0.139,-0.663 0.127,-0.632 0.127,-0.593C0.127,-0.562 0.135,-0.536 0.151,-0.515C0.167,-0.495 0.195,-0.474 0.236,-0.452C0.247,-0.446 0.263,-0.438 0.285,-0.427C0.412,-0.364 0.476,-0.289 0.476,-0.201Z" style="fill-rule:nonzero;"/>
                </g>
            </g>
        </g>
        <g transform="matrix(0.251219,0,0,0.251166,13.1672,8.32089)">
            <g transform="matrix(-1.18977,0.170148,0.170148,1.18977,229.774,137.096)">
                <path d="M-9.396,10.349C-26.645,2.884 -39.726,-13.093 -42.581,-33.063C-46.953,-63.633 -25.715,-91.96 4.855,-96.331C14.556,-97.719 24.028,-96.524 32.581,-93.271C22.553,-86.392 13.893,-77.78 6.971,-67.933C-7.073,-64.925 -16.585,-51.508 -14.521,-37.076C-13.919,-32.868 -12.397,-29.019 -10.187,-25.704C-11.741,-15.943 -11.877,-5.788 -10.405,4.504C-10.123,6.474 -9.786,8.423 -9.396,10.349Z"/>
            </g>
            <g transform="matrix(0,-1.20188,-1.20188,0,121.379,40.3443)">
                <path d="M-83.486,-97.659C-29.587,-97.659 14.173,-53.9 14.173,-0C14.173,53.899 -29.587,97.658 -83.486,97.658C-137.385,97.658 -181.144,53.899 -181.144,-0C-181.144,-53.9 -137.385,-97.659 -83.486,-97.659ZM-83.486,-69.314C-121.741,-69.314 -152.799,-38.255 -152.799,-0C-152.799,38.254 -121.741,69.313 -83.486,69.313C-45.231,69.313 -14.173,38.254 -14.173,-0C-14.173,-38.255 -45.231,-69.314 -83.486,-69.314Z"/>
            </g>
            <g transform="matrix(0,1.20188,1.20188,0,155.312,140.685)">
                <path d="M-1.417,-29.65L-28.232,-29.65L-28.232,-26.815L-1.417,-26.815L-1.417,-0L1.417,-0L1.417,-26.815L28.233,-26.815L28.233,-29.65L1.417,-29.65L1.417,-56.465L-1.417,-56.465L-1.417,-29.65Z"/>
            </g>
        </g>
    </g>
</svg>
