<?xml version="1.0" encoding="UTF-8" standalone="no"?>
<!DOCTYPE svg PUBLIC "-//W3C//DTD SVG 1.1//EN" "http://www.w3.org/Graphics/SVG/1.1/DTD/svg11.dtd">
<svg width="100%" height="100%" viewBox="0 0 280 280" version="1.1" xmlns="http://www.w3.org/2000/svg" xmlns:xlink="http://www.w3.org/1999/xlink" xml:space="preserve" xmlns:serif="http://www.serif.com/" style="fill-rule:evenodd;clip-rule:evenodd;stroke-linejoin:round;stroke-miterlimit:2;">
    <g transform="matrix(1.20188,0,0,1.20188,-357.113,-151.008)">
        <g transform="matrix(-0.989928,0.141569,0.141569,0.989928,488.309,239.712)">
            <path d="M4.855,-96.331C19.818,-98.471 34.237,-94.468 45.579,-86.246L60.558,-75.387L46.173,-63.751C28.158,-49.179 17.91,-25.941 20.929,-1.385L23.188,16.989L4.861,14.375C-19.117,10.955 -38.98,-7.878 -42.581,-33.063C-46.953,-63.633 -25.715,-91.96 4.855,-96.331ZM8.868,-68.271C-6.205,-66.115 -16.677,-52.149 -14.521,-37.076C-13.677,-31.173 -11.021,-25.977 -7.197,-21.969C-5.059,-39.118 1.591,-55.116 11.684,-68.529C10.752,-68.491 9.812,-68.406 8.868,-68.271Z"/>
            <path d="M4.365,-99.763C-28.101,-95.12 -50.656,-65.038 -46.013,-32.572C-42.188,-5.826 -21.093,14.175 4.371,17.807L22.698,20.421C23.766,20.574 24.845,20.22 25.615,19.464C26.386,18.708 26.76,17.637 26.629,16.566L24.37,-1.808C21.502,-25.137 31.239,-47.212 48.354,-61.056L62.738,-72.692C63.577,-73.37 64.052,-74.4 64.024,-75.479C63.995,-76.557 63.466,-77.561 62.593,-78.194L47.613,-89.053C35.569,-97.784 20.255,-102.036 4.365,-99.763ZM4.855,-96.331C19.818,-98.471 34.237,-94.468 45.579,-86.246L60.558,-75.387L46.173,-63.751C28.158,-49.179 17.91,-25.941 20.929,-1.385L23.188,16.989L4.861,14.375C-19.117,10.955 -38.98,-7.878 -42.581,-33.063C-46.953,-63.633 -25.715,-91.96 4.855,-96.331ZM8.868,-68.271C-6.205,-66.115 -16.677,-52.149 -14.521,-37.076C-13.677,-31.173 -11.021,-25.977 -7.197,-21.969C-5.059,-39.118 1.591,-55.116 11.684,-68.529C10.752,-68.491 9.812,-68.406 8.868,-68.271ZM3.973,-63.424C-2.201,-53.559 -6.696,-42.606 -9.18,-31.009C-10.103,-33.044 -10.757,-35.243 -11.089,-37.566C-12.704,-48.86 -6.211,-59.443 3.973,-63.424Z" style="fill:white;"/>
        </g>
        <g transform="matrix(0,-1,-1,0,398.121,159.212)">
            <path d="M-83.486,-97.659C-29.587,-97.659 14.173,-53.9 14.173,-0C14.173,53.899 -29.587,97.658 -83.486,97.658C-137.385,97.658 -181.144,53.899 -181.144,-0C-181.144,-53.9 -137.385,-97.659 -83.486,-97.659ZM-83.486,-69.314C-121.741,-69.314 -152.799,-38.255 -152.799,-0C-152.799,38.254 -121.741,69.313 -83.486,69.313C-45.231,69.313 -14.173,38.254 -14.173,-0C-14.173,-38.255 -45.231,-69.314 -83.486,-69.314Z"/>
            <path d="M-83.486,-101.126C-139.299,-101.126 -184.611,-55.813 -184.611,-0C-184.611,55.812 -139.299,101.125 -83.486,101.125C-27.673,101.125 17.639,55.812 17.639,-0C17.639,-55.813 -27.673,-101.126 -83.486,-101.126ZM-83.486,-97.659C-29.587,-97.659 14.173,-53.9 14.173,-0C14.173,53.899 -29.587,97.658 -83.486,97.658C-137.385,97.658 -181.144,53.899 -181.144,-0C-181.144,-53.9 -137.385,-97.659 -83.486,-97.659ZM-83.486,-69.314C-121.741,-69.314 -152.799,-38.255 -152.799,-0C-152.799,38.254 -121.741,69.313 -83.486,69.313C-45.231,69.313 -14.173,38.254 -14.173,-0C-14.173,-38.255 -45.231,-69.314 -83.486,-69.314ZM-83.486,-65.847C-47.145,-65.847 -17.64,-36.342 -17.64,-0C-17.64,36.341 -47.145,65.846 -83.486,65.846C-119.827,65.846 -149.332,36.341 -149.332,-0C-149.332,-36.342 -119.827,-65.847 -83.486,-65.847Z" style="fill:white;"/>
        </g>
        <g transform="matrix(0,1,1,0,426.355,242.698)">
            <path d="M-1.417,-29.65L-28.232,-29.65L-28.232,-26.815L-1.417,-26.815L-1.417,-0L1.417,-0L1.417,-26.815L28.233,-26.815L28.233,-29.65L1.417,-29.65L1.417,-56.465L-1.417,-56.465L-1.417,-29.65Z"/>
            <path d="M-4.884,-33.117L-31.699,-33.117L-31.699,-23.348C-31.699,-23.348 -4.884,-23.348 -4.884,-23.348L-4.884,3.466L4.884,3.466L4.884,-23.348L31.699,-23.348L31.699,-33.117C31.699,-33.117 4.884,-33.117 4.884,-33.117L4.884,-59.932L-4.884,-59.932L-4.884,-33.117ZM-1.417,-29.65L-1.417,-56.465L1.417,-56.465L1.417,-29.65L28.232,-29.65L28.233,-26.815L1.417,-26.815L1.417,-0L-1.417,-0L-1.417,-26.815L-28.233,-26.815L-28.232,-29.65L-1.417,-29.65Z" style="fill:white;"/>
        </g>
    </g>
</svg>
